<svg width="1278" height="1311" xmlns="http://www.w3.org/2000/svg" xmlns:xlink="http://www.w3.org/1999/xlink" xml:space="preserve" overflow="hidden"><defs><clipPath id="clip0"><rect x="2585" y="1122" width="1278" height="1311"/></clipPath></defs><g clip-path="url(#clip0)" transform="translate(-2585 -1122)"><path d="M2594 2256.67C2594 2237.52 2609.52 2222 2628.67 2222L3817.33 2222C3836.48 2222 3852 2237.52 3852 2256.67L3852 2395.33C3852 2414.48 3836.48 2430 3817.33 2430L2628.67 2430C2609.52 2430 2594 2414.48 2594 2395.33Z" stroke="#5E2194" stroke-width="5.72917" stroke-linecap="round" stroke-linejoin="round" stroke-miterlimit="10" stroke-opacity="1" fill="#8231CA" fill-rule="evenodd" fill-opacity="1"/><text fill="#FFFFFF" fill-opacity="1" font-family="Century Gothic,Century Gothic_MSFontService,sans-serif" font-style="normal" font-variant="normal" font-weight="400" font-stretch="normal" font-size="83" text-anchor="start" direction="ltr" writing-mode="lr-tb" unicode-bidi="normal" text-decoration="none" transform="matrix(1 0 0 1 3024.57 2357)">Hardware</text><path d="M2589 2013.67C2589 1994.52 2604.52 1979 2623.67 1979L3812.33 1979C3831.48 1979 3847 1994.52 3847 2013.67L3847 2152.33C3847 2171.48 3831.48 2187 3812.33 2187L2623.67 2187C2604.52 2187 2589 2171.48 2589 2152.33Z" stroke="#5E2194" stroke-width="5.72917" stroke-linecap="round" stroke-linejoin="round" stroke-miterlimit="10" stroke-opacity="1" fill="#8231CA" fill-rule="evenodd" fill-opacity="1"/><text fill="#FFFFFF" fill-opacity="1" font-family="Century Gothic,Century Gothic_MSFontService,sans-serif" font-style="normal" font-variant="normal" font-weight="400" font-stretch="normal" font-size="83" text-anchor="start" direction="ltr" writing-mode="lr-tb" unicode-bidi="normal" text-decoration="none" transform="matrix(1 0 0 1 3094.22 2115)">Kernel</text><path d="M2589 1770.67C2589 1751.52 2604.52 1736 2623.67 1736L3812.33 1736C3831.48 1736 3847 1751.52 3847 1770.67L3847 1909.33C3847 1928.48 3831.48 1944 3812.33 1944L2623.67 1944C2604.52 1944 2589 1928.48 2589 1909.33Z" stroke="#5E2194" stroke-width="5.72917" stroke-linecap="round" stroke-linejoin="round" stroke-miterlimit="10" stroke-opacity="1" fill="#8231CA" fill-rule="evenodd" fill-opacity="1"/><text fill="#FFFFFF" fill-opacity="1" font-family="Century Gothic,Century Gothic_MSFontService,sans-serif" font-style="normal" font-variant="normal" font-weight="400" font-stretch="normal" font-size="83" text-anchor="start" direction="ltr" writing-mode="lr-tb" unicode-bidi="normal" text-decoration="none" transform="matrix(1 0 0 1 2765.36 1872)">Host Operating System</text><path d="M2599 1184.83C2599 1152.89 2624.89 1127 2656.83 1127L2934.17 1127C2966.11 1127 2992 1152.89 2992 1184.83L2992 1416.17C2992 1448.11 2966.11 1474 2934.17 1474L2656.83 1474C2624.89 1474 2599 1448.11 2599 1416.17Z" stroke="#5E2194" stroke-width="5.72917" stroke-linecap="round" stroke-linejoin="round" stroke-miterlimit="10" stroke-opacity="1" fill="#8231CA" fill-rule="evenodd" fill-opacity="1"/><text fill="#FFFFFF" fill-opacity="1" font-family="Century Gothic,Century Gothic_MSFontService,sans-serif" font-style="normal" font-variant="normal" font-weight="400" font-stretch="normal" font-size="83" text-anchor="start" direction="ltr" writing-mode="lr-tb" unicode-bidi="normal" text-decoration="none" transform="matrix(1 0 0 1 2738.82 1332)">C1</text><path d="M3036 1184.83C3036 1152.89 3061.89 1127 3093.83 1127L3371.17 1127C3403.11 1127 3429 1152.89 3429 1184.83L3429 1416.17C3429 1448.11 3403.11 1474 3371.17 1474L3093.83 1474C3061.89 1474 3036 1448.11 3036 1416.17Z" stroke="#5E2194" stroke-width="5.72917" stroke-linecap="round" stroke-linejoin="round" stroke-miterlimit="10" stroke-opacity="1" fill="#8231CA" fill-rule="evenodd" fill-opacity="1"/><text fill="#FFFFFF" fill-opacity="1" font-family="Century Gothic,Century Gothic_MSFontService,sans-serif" font-style="normal" font-variant="normal" font-weight="400" font-stretch="normal" font-size="83" text-anchor="start" direction="ltr" writing-mode="lr-tb" unicode-bidi="normal" text-decoration="none" transform="matrix(1 0 0 1 3176.33 1332)">C2</text><path d="M3464 1184.83C3464 1152.89 3489.89 1127 3521.83 1127L3799.17 1127C3831.11 1127 3857 1152.89 3857 1184.83L3857 1416.17C3857 1448.11 3831.11 1474 3799.17 1474L3521.83 1474C3489.89 1474 3464 1448.11 3464 1416.17Z" stroke="#5E2194" stroke-width="5.72917" stroke-linecap="round" stroke-linejoin="round" stroke-miterlimit="10" stroke-opacity="1" fill="#8231CA" fill-rule="evenodd" fill-opacity="1"/><text fill="#FFFFFF" fill-opacity="1" font-family="Century Gothic,Century Gothic_MSFontService,sans-serif" font-style="normal" font-variant="normal" font-weight="400" font-stretch="normal" font-size="83" text-anchor="start" direction="ltr" writing-mode="lr-tb" unicode-bidi="normal" text-decoration="none" transform="matrix(1 0 0 1 3604.16 1332)">C1</text><path d="M2594 1535.67C2594 1516.52 2609.52 1501 2628.67 1501L3817.33 1501C3836.48 1501 3852 1516.52 3852 1535.67L3852 1674.33C3852 1693.48 3836.48 1709 3817.33 1709L2628.67 1709C2609.52 1709 2594 1693.48 2594 1674.33Z" stroke="#5E2194" stroke-width="5.72917" stroke-linecap="round" stroke-linejoin="round" stroke-miterlimit="10" stroke-opacity="1" fill="#8231CA" fill-rule="evenodd" fill-opacity="1"/><text fill="#FFFFFF" fill-opacity="1" font-family="Century Gothic,Century Gothic_MSFontService,sans-serif" font-style="normal" font-variant="normal" font-weight="400" font-stretch="normal" font-size="83" text-anchor="start" direction="ltr" writing-mode="lr-tb" unicode-bidi="normal" text-decoration="none" transform="matrix(1 0 0 1 2700.02 1637)">Docker Daemon (Process)</text></g></svg>