<svg width="3873" height="1004" xmlns="http://www.w3.org/2000/svg" xmlns:xlink="http://www.w3.org/1999/xlink" xml:space="preserve" overflow="hidden"><defs><clipPath id="clip0"><rect x="96" y="1457" width="3873" height="1004"/></clipPath></defs><g clip-path="url(#clip0)" transform="translate(-96 -1457)"><path d="M270 1772.5C270 1805.91 245.152 1833 214.5 1833 183.848 1833 159 1805.91 159 1772.5 159 1739.09 183.848 1712 214.5 1712 245.152 1712 270 1739.09 270 1772.5Z" stroke="#212121" stroke-width="9.70367" stroke-linecap="butt" stroke-linejoin="miter" stroke-miterlimit="8" stroke-opacity="1" fill="#FFFFFF" fill-rule="evenodd" fill-opacity="1"/><path d="M567 1772.5C567 1805.91 542.152 1833 511.5 1833 480.848 1833 456 1805.91 456 1772.5 456 1739.09 480.848 1712 511.5 1712 542.152 1712 567 1739.09 567 1772.5Z" stroke="#212121" stroke-width="9.70367" stroke-linecap="butt" stroke-linejoin="miter" stroke-miterlimit="8" stroke-opacity="1" fill="#FFFFFF" fill-rule="evenodd" fill-opacity="1"/><path d="M474 2063 474 2002.5C474 1993.09 470.3 1983.68 462.9 1978.3 448.1 1964.86 428.367 1955.44 408.633 1950.07 395.067 1946.03 379.033 1942 363 1942 348.2 1942 332.167 1944.69 317.367 1950.07 297.633 1955.44 279.133 1966.2 263.1 1978.3 255.7 1985.02 252 1993.09 252 2002.5L252 2063 474 2063Z" stroke="#212121" stroke-width="9.70367" stroke-linecap="butt" stroke-linejoin="miter" stroke-miterlimit="8" stroke-opacity="1" fill="#FFFFFF" fill-rule="evenodd" fill-opacity="1"/><path d="M418 1866C418 1899.14 393.152 1926 362.5 1926 331.848 1926 307 1899.14 307 1866 307 1832.86 331.848 1806 362.5 1806 393.152 1806 418 1832.86 418 1866Z" stroke="#212121" stroke-width="9.70367" stroke-linecap="butt" stroke-linejoin="miter" stroke-miterlimit="8" stroke-opacity="1" fill="#FFFFFF" fill-rule="evenodd" fill-opacity="1"/><path d="M610.902 1885C596.104 1871.67 576.374 1862.33 556.644 1857 543.08 1853 527.049 1849 511.018 1849 496.221 1849 480.19 1851.67 465.393 1857 457.994 1859.67 450.595 1862.33 443.196 1866.33L443.196 1867.67C443.196 1890.33 434.565 1911.67 421 1926.33 444.429 1934.33 462.926 1945 477.724 1957 481.423 1961 485.123 1963.67 487.589 1969L622 1969 622 1909C622 1899.67 618.3 1890.33 610.902 1885Z" stroke="#212121" stroke-width="9.70367" stroke-linecap="butt" stroke-linejoin="miter" stroke-miterlimit="8" stroke-opacity="1" fill="#FFFFFF" fill-rule="evenodd" fill-opacity="1"/><path d="M247.994 1957 247.994 1957C265.344 1943.67 285.172 1933 305 1926.33 291.368 1910.33 282.693 1890.33 282.693 1867.67 282.693 1866.33 282.693 1866.33 282.693 1865 275.258 1862.33 267.822 1858.33 260.387 1857 246.755 1853 230.644 1849 214.534 1849 199.663 1849 183.552 1851.67 168.681 1857 148.853 1863.67 130.264 1873 114.154 1885 106.718 1890.33 103 1899.67 103 1909L103 1969 236.841 1969C240.558 1963.67 243.037 1961 247.994 1957Z" stroke="#212121" stroke-width="9.70367" stroke-linecap="butt" stroke-linejoin="miter" stroke-miterlimit="8" stroke-opacity="1" fill="#FFFFFF" fill-rule="evenodd" fill-opacity="1"/><text fill="#212121" fill-opacity="1" font-family="Arial,Arial_MSFontService,sans-serif" font-style="normal" font-variant="normal" font-weight="400" font-stretch="normal" font-size="83" text-anchor="start" direction="ltr" writing-mode="lr-tb" unicode-bidi="normal" text-decoration="none" transform="matrix(1 0 0 1 242.003 2214)">Users</text><rect x="1342" y="1556" width="473" height="686" stroke="#5E2194" stroke-width="5.72917" stroke-linecap="round" stroke-linejoin="round" stroke-miterlimit="10" stroke-opacity="1" fill="#8231CA" fill-opacity="1"/><text fill="#FFFFFF" fill-opacity="1" font-family="Century Gothic,Century Gothic_MSFontService,sans-serif" font-style="normal" font-variant="normal" font-weight="400" font-stretch="normal" font-size="83" text-anchor="start" direction="ltr" writing-mode="lr-tb" unicode-bidi="normal" text-decoration="none" transform="matrix(1 0 0 1 1514.09 1881)">API <tspan fill="#FFFFFF" fill-opacity="1" font-family="Century Gothic,Century Gothic_MSFontService,sans-serif" font-style="normal" font-variant="normal" font-weight="400" font-stretch="normal" font-size="83" text-anchor="start" direction="ltr" writing-mode="lr-tb" unicode-bidi="normal" text-decoration="none" x="-125.194" y="99">Gateway</tspan></text><rect x="2011" y="1556" width="672" height="146" stroke="#5E2194" stroke-width="5.72917" stroke-linecap="round" stroke-linejoin="round" stroke-miterlimit="10" stroke-opacity="1" fill="#8231CA" fill-opacity="1"/><text fill="#FFFFFF" fill-opacity="1" font-family="Century Gothic,Century Gothic_MSFontService,sans-serif" font-style="normal" font-variant="normal" font-weight="400" font-stretch="normal" font-size="83" text-anchor="start" direction="ltr" writing-mode="lr-tb" unicode-bidi="normal" text-decoration="none" transform="matrix(1 0 0 1 2052.59 1660)">Microservice A</text><rect x="2010" y="1837" width="673" height="146" stroke="#5E2194" stroke-width="5.72917" stroke-linecap="round" stroke-linejoin="round" stroke-miterlimit="10" stroke-opacity="1" fill="#8231CA" fill-opacity="1"/><text fill="#FFFFFF" fill-opacity="1" font-family="Century Gothic,Century Gothic_MSFontService,sans-serif" font-style="normal" font-variant="normal" font-weight="400" font-stretch="normal" font-size="83" text-anchor="start" direction="ltr" writing-mode="lr-tb" unicode-bidi="normal" text-decoration="none" transform="matrix(1 0 0 1 2059.16 1942)">Microservice B</text><rect x="2010" y="2102" width="673" height="146" stroke="#5E2194" stroke-width="5.72917" stroke-linecap="round" stroke-linejoin="round" stroke-miterlimit="10" stroke-opacity="1" fill="#8231CA" fill-opacity="1"/><text fill="#FFFFFF" fill-opacity="1" font-family="Century Gothic,Century Gothic_MSFontService,sans-serif" font-style="normal" font-variant="normal" font-weight="400" font-stretch="normal" font-size="83" text-anchor="start" direction="ltr" writing-mode="lr-tb" unicode-bidi="normal" text-decoration="none" transform="matrix(1 0 0 1 2049.42 2207)">Microservice <tspan fill="#FFFFFF" fill-opacity="1" font-family="Century Gothic,Century Gothic_MSFontService,sans-serif" font-style="normal" font-variant="normal" font-weight="400" font-stretch="normal" font-size="83" text-anchor="start" direction="ltr" writing-mode="lr-tb" unicode-bidi="normal" text-decoration="none" x="527.084" y="0">C</tspan></text><path d="M22.9166-1.71871 195.2-1.71839C196.149-1.71839 196.919-0.948875 196.919 0.00036407 196.919 0.949604 196.149 1.71911 195.2 1.71911L22.9166 1.71879C21.9674 1.71879 21.1979 0.949279 21.1979 3.91914e-05 21.1979-0.9492 21.9674-1.71871 22.9166-1.71871ZM27.5 13.7501 0 0 27.5-13.7499Z" fill="#212121" fill-rule="nonzero" fill-opacity="1" transform="matrix(-1 0 0 1 2010.7 1629.5)"/><path d="M22.9166-1.71871 195.2-1.71839C196.149-1.71839 196.919-0.948875 196.919 0.00036407 196.919 0.949604 196.149 1.71911 195.2 1.71911L22.9166 1.71879C21.9674 1.71879 21.1979 0.949279 21.1979 3.91914e-05 21.1979-0.9492 21.9674-1.71871 22.9166-1.71871ZM27.5 13.7501 0 0 27.5-13.7499Z" fill="#212121" fill-rule="nonzero" fill-opacity="1" transform="matrix(-1 0 0 1 2010.7 1910.5)"/><path d="M22.9166-1.71871 195.2-1.71839C196.149-1.71839 196.919-0.948875 196.919 0.00036407 196.919 0.949604 196.149 1.71911 195.2 1.71911L22.9166 1.71879C21.9674 1.71879 21.1979 0.949279 21.1979 3.91914e-05 21.1979-0.9492 21.9674-1.71871 22.9166-1.71871ZM27.5 13.7501 0 0 27.5-13.7499Z" fill="#212121" fill-rule="nonzero" fill-opacity="1" transform="matrix(-1 0 0 1 2010.7 2185.5)"/><path d="M22.9248-1.62142 892.635 2.07149C893.585 2.07552 894.351 2.84829 894.347 3.79752 894.343 4.74675 893.57 5.51299 892.621 5.50896L22.9102 1.81605C21.961 1.81201 21.1947 1.03924 21.1988 0.0900132 21.2028-0.859218 21.9756-1.62545 22.9248-1.62142ZM27.4414 13.8666 0 0 27.5581-13.6331ZM888.103-9.97911 915.545 3.88753 887.987 17.5206Z" fill="#212121" fill-rule="nonzero" fill-opacity="1" transform="matrix(-1 0 0 1 3599.04 1625.5)"/><text fill="#212121" fill-opacity="1" font-family="Arial,Arial_MSFontService,sans-serif" font-style="normal" font-variant="normal" font-weight="400" font-stretch="normal" font-size="55" text-anchor="start" direction="ltr" writing-mode="lr-tb" unicode-bidi="normal" text-decoration="none" transform="matrix(1 0 0 1 2923.65 1528)">Data Interface</text><path d="M22.9328-1.48219 672.215 5.21796C673.164 5.22776 673.926 6.00517 673.916 6.95435 673.906 7.90354 673.129 8.66507 672.18 8.65528L22.8974 1.95513C21.9482 1.94533 21.1866 1.16792 21.1964 0.218733 21.2062-0.730456 21.9836-1.49198 22.9328-1.48219ZM27.3567 14.033 0 0 27.6404-13.4655ZM667.757-6.85994 695.113 7.1731 667.473 20.6386Z" fill="#212121" fill-rule="nonzero" fill-opacity="1" transform="matrix(-1 0 0 1 1342.61 1899.5)"/><text fill="#212121" fill-opacity="1" font-family="Arial,Arial_MSFontService,sans-serif" font-style="normal" font-variant="normal" font-weight="400" font-stretch="normal" font-size="55" text-anchor="start" direction="ltr" writing-mode="lr-tb" unicode-bidi="normal" text-decoration="none" transform="matrix(1 0 0 1 845.05 1865)">User Interface<tspan fill="#212121" fill-opacity="1" font-family="Arial,Arial_MSFontService,sans-serif" font-style="normal" font-variant="normal" font-weight="400" font-stretch="normal" font-size="83" text-anchor="start" direction="ltr" writing-mode="lr-tb" unicode-bidi="normal" text-decoration="none" x="2652.8" y="525">Databases</tspan></text><path d="M3846 1518.5C3846 1538.11 3790.71 1554 3722.5 1554 3654.29 1554 3599 1538.11 3599 1518.5 3599 1498.89 3654.29 1483 3722.5 1483 3790.71 1483 3846 1498.89 3846 1518.5Z" stroke="#212121" stroke-width="7.66283" stroke-linecap="butt" stroke-linejoin="miter" stroke-miterlimit="8" stroke-opacity="1" fill="#FFFFFF" fill-rule="evenodd" fill-opacity="1"/><path d="M3810.71 1607.33C3805.42 1607.33 3801.89 1603.77 3801.89 1598.42 3801.89 1593.07 3805.42 1589.5 3810.71 1589.5 3816.01 1589.5 3819.54 1593.07 3819.54 1598.42 3819.54 1603.77 3816.01 1607.33 3810.71 1607.33ZM3722.5 1571.67C3654.57 1571.67 3599 1555.62 3599 1536L3599 1607.33C3599 1626.95 3654.57 1643 3722.5 1643 3790.42 1643 3846 1626.95 3846 1607.33L3846 1536C3846 1555.62 3790.42 1571.67 3722.5 1571.67Z" stroke="#212121" stroke-width="7.66283" stroke-linecap="butt" stroke-linejoin="miter" stroke-miterlimit="8" stroke-opacity="1" fill="#FFFFFF" fill-rule="evenodd" fill-opacity="1"/><path d="M3810.71 1695.67C3805.42 1695.67 3801.89 1692.13 3801.89 1686.83 3801.89 1681.53 3805.42 1678 3810.71 1678 3816.01 1678 3819.54 1681.53 3819.54 1686.83 3819.54 1692.13 3816.01 1695.67 3810.71 1695.67ZM3722.5 1660.33C3654.57 1660.33 3599 1644.43 3599 1625L3599 1695.67C3599 1715.1 3654.57 1731 3722.5 1731 3790.42 1731 3846 1715.1 3846 1695.67L3846 1625C3846 1644.43 3790.42 1660.33 3722.5 1660.33Z" stroke="#212121" stroke-width="7.66283" stroke-linecap="butt" stroke-linejoin="miter" stroke-miterlimit="8" stroke-opacity="1" fill="#FFFFFF" fill-rule="evenodd" fill-opacity="1"/><path d="M3810.71 1784.67C3805.42 1784.67 3801.89 1781.13 3801.89 1775.83 3801.89 1770.53 3805.42 1767 3810.71 1767 3816.01 1767 3819.54 1770.53 3819.54 1775.83 3819.54 1781.13 3816.01 1784.67 3810.71 1784.67ZM3722.5 1749.33C3654.57 1749.33 3599 1733.43 3599 1714L3599 1784.67C3599 1804.1 3654.57 1820 3722.5 1820 3790.42 1820 3846 1804.1 3846 1784.67L3846 1714C3846 1733.43 3790.42 1749.33 3722.5 1749.33Z" stroke="#212121" stroke-width="7.66283" stroke-linecap="butt" stroke-linejoin="miter" stroke-miterlimit="8" stroke-opacity="1" fill="#FFFFFF" fill-rule="evenodd" fill-opacity="1"/><path d="M3840 1921.5C3840 1941.11 3784.48 1957 3716 1957 3647.52 1957 3592 1941.11 3592 1921.5 3592 1901.89 3647.52 1886 3716 1886 3784.48 1886 3840 1901.89 3840 1921.5Z" stroke="#212121" stroke-width="7.66283" stroke-linecap="butt" stroke-linejoin="miter" stroke-miterlimit="8" stroke-opacity="1" fill="#FFFFFF" fill-rule="evenodd" fill-opacity="1"/><path d="M3804.57 2009.67C3799.26 2009.67 3795.71 2006.13 3795.71 2000.83 3795.71 1995.53 3799.26 1992 3804.57 1992 3809.89 1992 3813.43 1995.53 3813.43 2000.83 3813.43 2006.13 3809.89 2009.67 3804.57 2009.67ZM3716 1974.33C3647.8 1974.33 3592 1958.43 3592 1939L3592 2009.67C3592 2029.1 3647.8 2045 3716 2045 3784.2 2045 3840 2029.1 3840 2009.67L3840 1939C3840 1958.43 3784.2 1974.33 3716 1974.33Z" stroke="#212121" stroke-width="7.66283" stroke-linecap="butt" stroke-linejoin="miter" stroke-miterlimit="8" stroke-opacity="1" fill="#FFFFFF" fill-rule="evenodd" fill-opacity="1"/><path d="M3804.57 2098.67C3799.26 2098.67 3795.71 2095.13 3795.71 2089.83 3795.71 2084.53 3799.26 2081 3804.57 2081 3809.89 2081 3813.43 2084.53 3813.43 2089.83 3813.43 2095.13 3809.89 2098.67 3804.57 2098.67ZM3716 2063.33C3647.8 2063.33 3592 2047.43 3592 2028L3592 2098.67C3592 2118.1 3647.8 2134 3716 2134 3784.2 2134 3840 2118.1 3840 2098.67L3840 2028C3840 2047.43 3784.2 2063.33 3716 2063.33Z" stroke="#212121" stroke-width="7.66283" stroke-linecap="butt" stroke-linejoin="miter" stroke-miterlimit="8" stroke-opacity="1" fill="#FFFFFF" fill-rule="evenodd" fill-opacity="1"/><path d="M3804.57 2186.67C3799.26 2186.67 3795.71 2183.13 3795.71 2177.83 3795.71 2172.53 3799.26 2169 3804.57 2169 3809.89 2169 3813.43 2172.53 3813.43 2177.83 3813.43 2183.13 3809.89 2186.67 3804.57 2186.67ZM3716 2151.33C3647.8 2151.33 3592 2135.43 3592 2116L3592 2186.67C3592 2206.1 3647.8 2222 3716 2222 3784.2 2222 3840 2206.1 3840 2186.67L3840 2116C3840 2135.43 3784.2 2151.33 3716 2151.33Z" stroke="#212121" stroke-width="7.66283" stroke-linecap="butt" stroke-linejoin="miter" stroke-miterlimit="8" stroke-opacity="1" fill="#FFFFFF" fill-rule="evenodd" fill-opacity="1"/><rect x="2806" y="1956" width="659" height="145" stroke="#5E2194" stroke-width="5.72917" stroke-linecap="round" stroke-linejoin="round" stroke-miterlimit="10" stroke-opacity="1" fill="#8231CA" fill-opacity="1"/><text fill="#FFFFFF" fill-opacity="1" font-family="Century Gothic,Century Gothic_MSFontService,sans-serif" font-style="normal" font-variant="normal" font-weight="400" font-stretch="normal" font-size="83" text-anchor="start" direction="ltr" writing-mode="lr-tb" unicode-bidi="normal" text-decoration="none" transform="matrix(1 0 0 1 2841.4 2060)">Microservice D</text><path d="M22.9306-1.5206 104.607-0.814602C105.557-0.806397 106.319-0.0302639 106.311 0.91894 106.303 1.86814 105.527 2.63097 104.578 2.62277L22.9009 1.91677C21.9517 1.90856 21.1889 1.13243 21.1971 0.183225 21.2053-0.765979 21.9814-1.52881 22.9306-1.5206ZM27.3801 13.9872 0 0 27.6178-13.5118ZM100.128-12.885 127.508 1.10217 99.8905 14.614Z" fill="#212121" fill-rule="nonzero" fill-opacity="1" transform="matrix(-1 0 0 1 3593.01 2028.5)"/><path d="M16.1047 16.394 110.183 127.717C110.795 128.442 110.704 129.527 109.979 130.139 109.254 130.752 108.17 130.661 107.557 129.936L13.4792 18.6128C12.8665 17.8878 12.9575 16.8033 13.6825 16.1906 14.4076 15.5779 15.492 15.669 16.1047 16.394ZM7.24831 29.8793 0 0 28.2525 12.129ZM116.414 116.451 123.662 146.33 95.4095 134.201Z" fill="#212121" fill-rule="nonzero" fill-opacity="1" transform="matrix(-1 0 0 1 2807.16 2029.5)"/><path d="M2789.43 2014.42 2698.85 1927.6C2698.17 1926.94 2698.15 1925.85 2698.8 1925.17 2699.46 1924.48 2700.55 1924.46 2701.23 1925.12L2791.81 2011.94C2792.49 2012.6 2792.52 2013.68 2791.86 2014.37 2791.2 2015.05 2790.11 2015.08 2789.43 2014.42ZM2796.82 2000.08 2807.16 2029.04 2777.79 2019.93ZM2693.84 1939.46 2683.5 1910.5 2712.87 1919.6Z" fill="#212121" fill-rule="nonzero" fill-opacity="1"/><text fill="#212121" fill-opacity="1" font-family="Arial,Arial_MSFontService,sans-serif" font-style="normal" font-variant="normal" font-weight="400" font-stretch="normal" font-size="55" text-anchor="start" direction="ltr" writing-mode="lr-tb" unicode-bidi="normal" text-decoration="none" transform="matrix(1 0 0 1 2209.27 2346)">All different <tspan fill="#212121" fill-opacity="1" font-family="Arial,Arial_MSFontService,sans-serif" font-style="normal" font-variant="normal" font-weight="400" font-stretch="normal" font-size="55" text-anchor="start" direction="ltr" writing-mode="lr-tb" unicode-bidi="normal" text-decoration="none" x="12.3064" y="66">processes</tspan></text></g></svg>