<svg width="4061" height="967" xmlns="http://www.w3.org/2000/svg" xmlns:xlink="http://www.w3.org/1999/xlink" xml:space="preserve" overflow="hidden"><defs><clipPath id="clip0"><rect x="96" y="1485" width="4061" height="967"/></clipPath><clipPath id="clip1"><rect x="3415" y="1486" width="738" height="738"/></clipPath><clipPath id="clip2"><rect x="3415" y="1486" width="738" height="738"/></clipPath><clipPath id="clip3"><rect x="3415" y="1486" width="738" height="738"/></clipPath></defs><g clip-path="url(#clip0)" transform="translate(-96 -1485)"><path d="M270 1772.5C270 1805.91 245.152 1833 214.5 1833 183.848 1833 159 1805.91 159 1772.5 159 1739.09 183.848 1712 214.5 1712 245.152 1712 270 1739.09 270 1772.5Z" stroke="#212121" stroke-width="9.70367" stroke-linecap="butt" stroke-linejoin="miter" stroke-miterlimit="8" stroke-opacity="1" fill="#FFFFFF" fill-rule="evenodd" fill-opacity="1"/><path d="M567 1772.5C567 1805.91 542.152 1833 511.5 1833 480.848 1833 456 1805.91 456 1772.5 456 1739.09 480.848 1712 511.5 1712 542.152 1712 567 1739.09 567 1772.5Z" stroke="#212121" stroke-width="9.70367" stroke-linecap="butt" stroke-linejoin="miter" stroke-miterlimit="8" stroke-opacity="1" fill="#FFFFFF" fill-rule="evenodd" fill-opacity="1"/><path d="M474 2063 474 2002.5C474 1993.09 470.3 1983.68 462.9 1978.3 448.1 1964.86 428.367 1955.44 408.633 1950.07 395.067 1946.03 379.033 1942 363 1942 348.2 1942 332.167 1944.69 317.367 1950.07 297.633 1955.44 279.133 1966.2 263.1 1978.3 255.7 1985.02 252 1993.09 252 2002.5L252 2063 474 2063Z" stroke="#212121" stroke-width="9.70367" stroke-linecap="butt" stroke-linejoin="miter" stroke-miterlimit="8" stroke-opacity="1" fill="#FFFFFF" fill-rule="evenodd" fill-opacity="1"/><path d="M418 1866C418 1899.14 393.152 1926 362.5 1926 331.848 1926 307 1899.14 307 1866 307 1832.86 331.848 1806 362.5 1806 393.152 1806 418 1832.86 418 1866Z" stroke="#212121" stroke-width="9.70367" stroke-linecap="butt" stroke-linejoin="miter" stroke-miterlimit="8" stroke-opacity="1" fill="#FFFFFF" fill-rule="evenodd" fill-opacity="1"/><path d="M610.902 1885C596.104 1871.67 576.374 1862.33 556.644 1857 543.08 1853 527.049 1849 511.018 1849 496.221 1849 480.19 1851.67 465.393 1857 457.994 1859.67 450.595 1862.33 443.196 1866.33L443.196 1867.67C443.196 1890.33 434.565 1911.67 421 1926.33 444.429 1934.33 462.926 1945 477.724 1957 481.423 1961 485.123 1963.67 487.589 1969L622 1969 622 1909C622 1899.67 618.3 1890.33 610.902 1885Z" stroke="#212121" stroke-width="9.70367" stroke-linecap="butt" stroke-linejoin="miter" stroke-miterlimit="8" stroke-opacity="1" fill="#FFFFFF" fill-rule="evenodd" fill-opacity="1"/><path d="M247.994 1957 247.994 1957C265.344 1943.67 285.172 1933 305 1926.33 291.368 1910.33 282.693 1890.33 282.693 1867.67 282.693 1866.33 282.693 1866.33 282.693 1865 275.258 1862.33 267.822 1858.33 260.387 1857 246.755 1853 230.644 1849 214.534 1849 199.663 1849 183.552 1851.67 168.681 1857 148.853 1863.67 130.264 1873 114.154 1885 106.718 1890.33 103 1899.67 103 1909L103 1969 236.841 1969C240.558 1963.67 243.037 1961 247.994 1957Z" stroke="#212121" stroke-width="9.70367" stroke-linecap="butt" stroke-linejoin="miter" stroke-miterlimit="8" stroke-opacity="1" fill="#FFFFFF" fill-rule="evenodd" fill-opacity="1"/><path d="M366.058 2175.89C362.708 2175.89 359.891 2177.01 357.608 2179.25 355.325 2181.49 354.062 2184.49 353.819 2188.25L377.851 2188.25C377.527 2184.63 376.609 2181.91 375.096 2180.1 372.772 2177.29 369.759 2175.89 366.058 2175.89ZM435.784 2169.89C439.162 2169.89 442.127 2170.37 444.68 2171.35 447.233 2172.32 449.118 2173.64 450.334 2175.3 451.55 2176.96 452.387 2179.18 452.846 2181.97L445.714 2182.94C445.389 2180.72 444.451 2178.99 442.897 2177.75 441.343 2176.51 439.148 2175.89 436.311 2175.89 432.961 2175.89 430.57 2176.44 429.138 2177.55 427.706 2178.66 426.99 2179.95 426.99 2181.44 426.99 2182.38 427.287 2183.24 427.882 2183.99 428.476 2184.78 429.408 2185.42 430.678 2185.94 431.407 2186.21 433.555 2186.83 437.122 2187.8 442.282 2189.18 445.882 2190.31 447.922 2191.19 449.962 2192.06 451.563 2193.34 452.725 2195.02 453.887 2196.69 454.467 2198.77 454.468 2201.26 454.467 2203.69 453.758 2205.98 452.34 2208.13 450.921 2210.27 448.875 2211.94 446.2 2213.11 443.525 2214.29 440.499 2214.87 437.122 2214.87 431.529 2214.87 427.267 2213.71 424.335 2211.39 421.404 2209.06 419.533 2205.62 418.722 2201.05L425.936 2199.92C426.342 2202.81 427.47 2205.03 429.32 2206.57 431.171 2208.11 433.758 2208.88 437.081 2208.88 440.432 2208.88 442.917 2208.19 444.538 2206.83 446.159 2205.46 446.97 2203.86 446.97 2202.03 446.97 2200.38 446.254 2199.08 444.822 2198.14 443.822 2197.49 441.337 2196.66 437.365 2195.66 432.015 2194.31 428.307 2193.14 426.24 2192.16 424.173 2191.17 422.606 2189.81 421.539 2188.06 420.472 2186.32 419.938 2184.4 419.938 2182.29 419.938 2180.37 420.377 2178.59 421.255 2176.96 422.133 2175.33 423.329 2173.97 424.842 2172.89 425.977 2172.05 427.524 2171.34 429.482 2170.76 431.441 2170.18 433.542 2169.89 435.784 2169.89ZM409.946 2169.89C412.405 2169.89 414.904 2170.67 417.444 2172.24L414.931 2179.01C413.148 2177.95 411.365 2177.43 409.581 2177.43 407.987 2177.43 406.555 2177.91 405.285 2178.86 404.016 2179.82 403.11 2181.15 402.57 2182.86 401.76 2185.45 401.354 2188.29 401.354 2191.37L401.354 2213.9 394.059 2213.9 394.059 2170.86 400.625 2170.86 400.625 2177.39C402.3 2174.33 403.847 2172.32 405.265 2171.35 406.684 2170.37 408.244 2169.89 409.946 2169.89ZM365.977 2169.89C371.732 2169.89 376.433 2171.85 380.08 2175.76 383.728 2179.68 385.552 2185.19 385.552 2192.3 385.552 2192.73 385.538 2193.38 385.511 2194.25L353.413 2194.25C353.684 2198.97 355.021 2202.59 357.426 2205.11 359.83 2207.62 362.829 2208.88 366.423 2208.88 369.098 2208.88 371.381 2208.17 373.272 2206.77 375.163 2205.36 376.663 2203.12 377.77 2200.04L385.309 2200.97C384.12 2205.38 381.918 2208.79 378.703 2211.23 375.487 2213.66 371.381 2214.87 366.382 2214.87 360.087 2214.87 355.095 2212.94 351.407 2209.06 347.719 2205.18 345.875 2199.74 345.875 2192.75 345.875 2185.5 347.74 2179.89 351.468 2175.89 355.197 2171.89 360.033 2169.89 365.977 2169.89ZM321.201 2169.89C324.578 2169.89 327.544 2170.37 330.097 2171.35 332.65 2172.32 334.535 2173.64 335.75 2175.3 336.966 2176.96 337.804 2179.18 338.263 2181.97L331.13 2182.94C330.806 2180.72 329.867 2178.99 328.314 2177.75 326.76 2176.51 324.565 2175.89 321.728 2175.89 318.378 2175.89 315.987 2176.44 314.555 2177.55 313.123 2178.66 312.407 2179.95 312.407 2181.44 312.407 2182.38 312.704 2183.24 313.298 2183.99 313.893 2184.78 314.825 2185.42 316.095 2185.94 316.824 2186.21 318.972 2186.83 322.538 2187.8 327.699 2189.18 331.299 2190.31 333.339 2191.19 335.379 2192.06 336.98 2193.34 338.142 2195.02 339.303 2196.69 339.884 2198.77 339.884 2201.26 339.884 2203.69 339.175 2205.98 337.757 2208.13 336.338 2210.27 334.291 2211.94 331.617 2213.11 328.942 2214.29 325.916 2214.87 322.538 2214.87 316.946 2214.87 312.684 2213.71 309.752 2211.39 306.821 2209.06 304.95 2205.62 304.139 2201.05L311.353 2199.92C311.758 2202.81 312.886 2205.03 314.737 2206.57 316.588 2208.11 319.175 2208.88 322.498 2208.88 325.848 2208.88 328.334 2208.19 329.955 2206.83 331.576 2205.46 332.387 2203.86 332.387 2202.03 332.387 2200.38 331.671 2199.08 330.239 2198.14 329.239 2197.49 326.753 2196.66 322.782 2195.66 317.432 2194.31 313.724 2193.14 311.657 2192.16 309.59 2191.17 308.023 2189.81 306.956 2188.06 305.889 2186.32 305.355 2184.4 305.355 2182.29 305.355 2180.37 305.794 2178.59 306.672 2176.96 307.55 2175.33 308.746 2173.97 310.259 2172.89 311.393 2172.05 312.94 2171.34 314.899 2170.76 316.858 2170.18 318.959 2169.89 321.201 2169.89ZM248.527 2154.49 256.39 2154.49 256.39 2188.77C256.39 2193.93 256.869 2197.74 257.828 2200.18 258.788 2202.63 260.436 2204.51 262.773 2205.84 265.11 2207.16 267.967 2207.82 271.344 2207.82 277.126 2207.82 281.246 2206.51 283.705 2203.89 286.164 2201.27 287.393 2196.23 287.393 2188.77L287.393 2154.49 295.255 2154.49 295.255 2188.81C295.255 2194.79 294.58 2199.53 293.229 2203.04 291.878 2206.55 289.44 2209.41 285.914 2211.61 282.388 2213.81 277.761 2214.91 272.033 2214.91 266.468 2214.91 261.915 2213.95 258.376 2212.04 254.836 2210.12 252.31 2207.34 250.797 2203.71 249.284 2200.07 248.527 2195.11 248.527 2188.81Z" stroke="#212121" stroke-width="3" stroke-linecap="butt" stroke-linejoin="round" stroke-miterlimit="10" stroke-opacity="1" fill="#212121" fill-rule="evenodd" fill-opacity="1"/><text fill="#000000" fill-opacity="0" font-family="Arial,Arial_MSFontService,sans-serif" font-size="60.4263" direction="ltr" writing-mode="lr-tb" x="248.527" y="2207.36">Users</text><rect x="1370" y="1500" width="1547" height="806" stroke="#5E2194" stroke-width="5.72917" stroke-linecap="round" stroke-linejoin="round" stroke-miterlimit="10" stroke-opacity="1" fill="none"/><path d="M2060.06 2391.31C2057.41 2392.39 2053.44 2393.31 2048.15 2394.06 2045.15 2394.5 2043.03 2394.98 2041.78 2395.52 2040.54 2396.06 2039.58 2396.85 2038.91 2397.89 2038.23 2398.93 2037.89 2400.09 2037.89 2401.36 2037.89 2403.3 2038.63 2404.92 2040.1 2406.22 2041.57 2407.52 2043.73 2408.17 2046.57 2408.17 2049.38 2408.17 2051.87 2407.55 2054.06 2406.32 2056.25 2405.09 2057.86 2403.41 2058.89 2401.28 2059.67 2399.63 2060.06 2397.2 2060.06 2393.98ZM2334.22 2374.93C2330.57 2374.93 2327.54 2376.3 2325.14 2379.03 2322.73 2381.76 2321.53 2385.88 2321.53 2391.39 2321.53 2396.9 2322.73 2401.03 2325.14 2403.77 2327.54 2406.51 2330.57 2407.88 2334.22 2407.88 2337.84 2407.88 2340.85 2406.5 2343.25 2403.75 2345.66 2400.99 2346.86 2396.79 2346.86 2391.15 2346.86 2385.82 2345.65 2381.79 2343.23 2379.05 2340.82 2376.31 2337.81 2374.93 2334.22 2374.93ZM2137.13 2374.93C2133.49 2374.93 2130.46 2376.3 2128.06 2379.03 2125.65 2381.76 2124.45 2385.88 2124.45 2391.39 2124.45 2396.9 2125.65 2401.03 2128.06 2403.77 2130.46 2406.51 2133.49 2407.88 2137.13 2407.88 2140.75 2407.88 2143.77 2406.5 2146.17 2403.75 2148.58 2400.99 2149.78 2396.79 2149.78 2391.15 2149.78 2385.82 2148.57 2381.79 2146.15 2379.05 2143.73 2376.31 2140.73 2374.93 2137.13 2374.93ZM2421.58 2374.89C2418.23 2374.89 2415.42 2376.01 2413.13 2378.26 2410.85 2380.5 2409.59 2383.5 2409.34 2387.25L2433.38 2387.25C2433.05 2383.63 2432.13 2380.92 2430.62 2379.11 2428.3 2376.3 2425.29 2374.89 2421.58 2374.89ZM1927.27 2374.61C1924.17 2374.61 1921.42 2376.06 1919.03 2378.97 1916.63 2381.87 1915.44 2386.09 1915.44 2391.63 1915.44 2397.17 1916.56 2401.26 1918.8 2403.91 1921.05 2406.56 1923.76 2407.88 1926.95 2407.88 1930.19 2407.88 1932.97 2406.51 1935.28 2403.77 1937.59 2401.03 1938.74 2396.78 1938.74 2391.02 1938.74 2385.54 1937.61 2381.43 1935.36 2378.7 1933.1 2375.97 1930.41 2374.61 1927.27 2374.61ZM1881.44 2374.61C1878.33 2374.61 1875.58 2376.06 1873.19 2378.97 1870.8 2381.87 1869.61 2386.09 1869.61 2391.63 1869.61 2397.17 1870.73 2401.26 1872.97 2403.91 1875.21 2406.56 1877.93 2407.88 1881.12 2407.88 1884.36 2407.88 1887.13 2406.51 1889.44 2403.77 1891.75 2401.03 1892.91 2396.78 1892.91 2391.02 1892.91 2385.54 1891.78 2381.43 1889.52 2378.7 1887.27 2375.97 1884.57 2374.61 1881.44 2374.61ZM2101.37 2369.87 2108.67 2369.87 2108.67 2412.91 2101.37 2412.91ZM1973.04 2369.87 1980.34 2369.87 1980.34 2412.91 1973.04 2412.91ZM2505.06 2368.9C2508.44 2368.9 2511.4 2369.38 2513.96 2370.35 2516.51 2371.33 2518.39 2372.64 2519.61 2374.31 2520.83 2375.97 2521.66 2378.19 2522.12 2380.97L2514.99 2381.95C2514.67 2379.73 2513.73 2378 2512.17 2376.76 2510.62 2375.51 2508.42 2374.89 2505.59 2374.89 2502.24 2374.89 2499.85 2375.45 2498.41 2376.56 2496.98 2377.66 2496.27 2378.96 2496.27 2380.45 2496.27 2381.39 2496.56 2382.24 2497.16 2383 2497.75 2383.78 2498.68 2384.43 2499.95 2384.94 2500.68 2385.21 2502.83 2385.84 2506.4 2386.81 2511.56 2388.19 2515.16 2389.31 2517.2 2390.19 2519.24 2391.07 2520.84 2392.35 2522 2394.02 2523.16 2395.7 2523.74 2397.78 2523.74 2400.26 2523.74 2402.7 2523.03 2404.99 2521.62 2407.13 2520.2 2409.28 2518.15 2410.94 2515.48 2412.12 2512.8 2413.29 2509.78 2413.88 2506.4 2413.88 2500.81 2413.88 2496.54 2412.72 2493.61 2410.4 2490.68 2408.07 2488.81 2404.63 2488 2400.06L2495.21 2398.93C2495.62 2401.82 2496.75 2404.03 2498.6 2405.57 2500.45 2407.11 2503.03 2407.88 2506.36 2407.88 2509.71 2407.88 2512.19 2407.2 2513.81 2405.84 2515.44 2404.47 2516.25 2402.87 2516.25 2401.03 2516.25 2399.39 2515.53 2398.09 2514.1 2397.14 2513.1 2396.49 2510.61 2395.67 2506.64 2394.67 2501.29 2393.32 2497.58 2392.15 2495.52 2391.17 2493.45 2390.18 2491.88 2388.81 2490.82 2387.07 2489.75 2385.33 2489.21 2383.4 2489.21 2381.3 2489.21 2379.38 2489.65 2377.6 2490.53 2375.97 2491.41 2374.33 2492.6 2372.98 2494.12 2371.89 2495.25 2371.06 2496.8 2370.35 2498.76 2369.77 2500.72 2369.19 2502.82 2368.9 2505.06 2368.9ZM2463.81 2368.9C2467.19 2368.9 2470.15 2369.38 2472.71 2370.35 2475.26 2371.33 2477.14 2372.64 2478.36 2374.31 2479.58 2375.97 2480.41 2378.19 2480.87 2380.97L2473.74 2381.95C2473.42 2379.73 2472.48 2378 2470.92 2376.76 2469.37 2375.51 2467.17 2374.89 2464.34 2374.89 2460.99 2374.89 2458.6 2375.45 2457.16 2376.56 2455.73 2377.66 2455.02 2378.96 2455.02 2380.45 2455.02 2381.39 2455.31 2382.24 2455.91 2383 2456.5 2383.78 2457.43 2384.43 2458.7 2384.94 2459.43 2385.21 2461.58 2385.84 2465.15 2386.81 2470.31 2388.19 2473.91 2389.31 2475.95 2390.19 2477.99 2391.07 2479.59 2392.35 2480.75 2394.02 2481.91 2395.7 2482.49 2397.78 2482.49 2400.26 2482.49 2402.7 2481.78 2404.99 2480.37 2407.13 2478.95 2409.28 2476.9 2410.94 2474.23 2412.12 2471.55 2413.29 2468.53 2413.88 2465.15 2413.88 2459.56 2413.88 2455.29 2412.72 2452.36 2410.4 2449.43 2408.07 2447.56 2404.63 2446.75 2400.06L2453.96 2398.93C2454.37 2401.82 2455.5 2404.03 2457.35 2405.57 2459.2 2407.11 2461.78 2407.88 2465.11 2407.88 2468.46 2407.88 2470.94 2407.2 2472.56 2405.84 2474.19 2404.47 2475 2402.87 2475 2401.03 2475 2399.39 2474.28 2398.09 2472.85 2397.14 2471.85 2396.49 2469.36 2395.67 2465.39 2394.67 2460.04 2393.32 2456.33 2392.15 2454.27 2391.17 2452.2 2390.18 2450.63 2388.81 2449.57 2387.07 2448.5 2385.33 2447.96 2383.4 2447.96 2381.3 2447.96 2379.38 2448.4 2377.6 2449.28 2375.97 2450.16 2374.33 2451.35 2372.98 2452.87 2371.89 2454 2371.06 2455.55 2370.35 2457.51 2369.77 2459.47 2369.19 2461.57 2368.9 2463.81 2368.9ZM2421.5 2368.9C2427.26 2368.9 2431.96 2370.85 2435.61 2374.77 2439.25 2378.69 2441.08 2384.2 2441.08 2391.31 2441.08 2391.74 2441.06 2392.39 2441.04 2393.25L2408.94 2393.25C2409.21 2397.98 2410.55 2401.6 2412.95 2404.11 2415.36 2406.63 2418.36 2407.88 2421.95 2407.88 2424.62 2407.88 2426.91 2407.18 2428.8 2405.78 2430.69 2404.37 2432.19 2402.13 2433.3 2399.05L2440.83 2399.98C2439.65 2404.38 2437.44 2407.8 2434.23 2410.23 2431.01 2412.67 2426.91 2413.88 2421.91 2413.88 2415.61 2413.88 2410.62 2411.94 2406.93 2408.07 2403.25 2404.19 2401.4 2398.75 2401.4 2391.75 2401.4 2384.51 2403.27 2378.89 2406.99 2374.89 2410.72 2370.89 2415.56 2368.9 2421.5 2368.9ZM2379.97 2368.9C2384.64 2368.9 2388.47 2370.08 2391.44 2372.44 2394.41 2374.81 2396.32 2378.16 2397.15 2382.51L2390.06 2383.61C2389.39 2380.72 2388.19 2378.54 2386.47 2377.08 2384.76 2375.62 2382.68 2374.89 2380.25 2374.89 2376.58 2374.89 2373.59 2376.21 2371.3 2378.84 2369 2381.48 2367.85 2385.65 2367.85 2391.35 2367.85 2397.13 2368.96 2401.33 2371.17 2403.95 2373.39 2406.57 2376.28 2407.88 2379.85 2407.88 2382.71 2407.88 2385.1 2407 2387.02 2405.25 2388.94 2403.49 2390.16 2400.79 2390.67 2397.14L2397.84 2398.08C2397.06 2403.02 2395.05 2406.89 2391.82 2409.69 2388.59 2412.48 2384.63 2413.88 2379.93 2413.88 2374.04 2413.88 2369.3 2411.96 2365.72 2408.11 2362.14 2404.26 2360.35 2398.74 2360.35 2391.55 2360.35 2386.9 2361.12 2382.84 2362.66 2379.35 2364.2 2375.87 2366.55 2373.25 2369.7 2371.51 2372.84 2369.77 2376.27 2368.9 2379.97 2368.9ZM2334.22 2368.9C2340.13 2368.9 2344.97 2370.83 2348.73 2374.71 2352.48 2378.59 2354.36 2383.94 2354.36 2390.78 2354.36 2396.32 2353.53 2400.68 2351.87 2403.85 2350.21 2407.02 2347.79 2409.49 2344.61 2411.25 2341.44 2413 2337.97 2413.88 2334.22 2413.88 2328.19 2413.88 2323.32 2411.95 2319.61 2408.09 2315.89 2404.22 2314.03 2398.66 2314.03 2391.39 2314.03 2383.42 2316.25 2377.51 2320.68 2373.68 2324.38 2370.49 2328.89 2368.9 2334.22 2368.9ZM2305.06 2368.9C2307.51 2368.9 2310.01 2369.68 2312.55 2371.25L2310.04 2378.01C2308.26 2376.96 2306.47 2376.43 2304.69 2376.43 2303.1 2376.43 2301.66 2376.91 2300.39 2377.87 2299.12 2378.83 2298.22 2380.16 2297.68 2381.86 2296.87 2384.46 2296.46 2387.29 2296.46 2390.38L2296.46 2412.91 2289.17 2412.91 2289.17 2369.87 2295.73 2369.87 2295.73 2376.39C2297.41 2373.34 2298.96 2371.33 2300.37 2370.35 2301.79 2369.38 2303.35 2368.9 2305.06 2368.9ZM2185.76 2368.9C2188.36 2368.9 2190.74 2369.36 2192.92 2370.29 2195.09 2371.23 2196.72 2372.45 2197.8 2373.96 2198.88 2375.47 2199.64 2377.27 2200.07 2379.35 2200.34 2380.7 2200.47 2383.07 2200.47 2386.44L2200.47 2412.91 2193.18 2412.91 2193.18 2386.73C2193.18 2383.76 2192.9 2381.53 2192.33 2380.06 2191.76 2378.59 2190.76 2377.41 2189.31 2376.53 2187.86 2375.66 2186.17 2375.22 2184.22 2375.22 2181.12 2375.22 2178.43 2376.2 2176.18 2378.18 2173.92 2380.15 2172.79 2383.89 2172.79 2389.4L2172.79 2412.91 2165.5 2412.91 2165.5 2369.87 2172.07 2369.87 2172.07 2375.99C2175.23 2371.26 2179.79 2368.9 2185.76 2368.9ZM2137.13 2368.9C2143.05 2368.9 2147.89 2370.83 2151.64 2374.71 2155.4 2378.59 2157.28 2383.94 2157.28 2390.78 2157.28 2396.32 2156.45 2400.68 2154.78 2403.85 2153.12 2407.02 2150.7 2409.49 2147.53 2411.25 2144.35 2413 2140.89 2413.88 2137.13 2413.88 2131.11 2413.88 2126.24 2411.95 2122.52 2408.09 2118.81 2404.22 2116.95 2398.66 2116.95 2391.39 2116.95 2383.42 2119.17 2377.51 2123.6 2373.68 2127.3 2370.49 2131.81 2368.9 2137.13 2368.9ZM2050.78 2368.9C2054.45 2368.9 2057.44 2369.33 2059.74 2370.19 2062.03 2371.06 2063.72 2372.14 2064.8 2373.45 2065.88 2374.77 2066.64 2376.42 2067.07 2378.42 2067.31 2379.66 2067.44 2381.9 2067.44 2385.15L2067.44 2394.87C2067.44 2401.66 2067.59 2405.94 2067.9 2407.74 2068.21 2409.54 2068.83 2411.26 2069.75 2412.91L2062.13 2412.91C2061.37 2411.4 2060.88 2409.63 2060.67 2407.6 2057.97 2409.9 2055.37 2411.52 2052.87 2412.46 2050.37 2413.41 2047.69 2413.88 2044.82 2413.88 2040.09 2413.88 2036.46 2412.73 2033.92 2410.42 2031.38 2408.11 2030.11 2405.15 2030.11 2401.56 2030.11 2399.45 2030.59 2397.53 2031.55 2395.79 2032.51 2394.04 2033.77 2392.64 2035.32 2391.59 2036.87 2390.54 2038.62 2389.74 2040.57 2389.2 2042 2388.82 2044.16 2388.46 2047.05 2388.11 2052.94 2387.4 2057.28 2386.57 2060.06 2385.59 2060.09 2384.59 2060.1 2383.96 2060.1 2383.69 2060.1 2380.72 2059.41 2378.62 2058.03 2377.41 2056.17 2375.76 2053.4 2374.93 2049.73 2374.93 2046.29 2374.93 2043.76 2375.54 2042.13 2376.74 2040.49 2377.94 2039.28 2380.07 2038.5 2383.12L2031.37 2382.15C2032.02 2379.09 2033.08 2376.63 2034.57 2374.75 2036.05 2372.87 2038.2 2371.43 2041.01 2370.42 2043.82 2369.4 2047.08 2368.9 2050.78 2368.9ZM2008.72 2368.9C2013.39 2368.9 2017.22 2370.08 2020.19 2372.44 2023.16 2374.81 2025.07 2378.16 2025.9 2382.51L2018.81 2383.61C2018.14 2380.72 2016.94 2378.54 2015.22 2377.08 2013.51 2375.62 2011.43 2374.89 2009 2374.89 2005.33 2374.89 2002.34 2376.21 2000.05 2378.84 1997.75 2381.48 1996.6 2385.65 1996.6 2391.35 1996.6 2397.13 1997.71 2401.33 1999.92 2403.95 2002.14 2406.57 2005.03 2407.88 2008.6 2407.88 2011.46 2407.88 2013.85 2407 2015.77 2405.25 2017.69 2403.49 2018.91 2400.79 2019.42 2397.14L2026.59 2398.08C2025.81 2403.02 2023.8 2406.89 2020.57 2409.69 2017.34 2412.48 2013.38 2413.88 2008.68 2413.88 2002.79 2413.88 1998.05 2411.96 1994.47 2408.11 1990.89 2404.26 1989.1 2398.74 1989.1 2391.55 1989.1 2386.9 1989.87 2382.84 1991.41 2379.35 1992.95 2375.87 1995.3 2373.25 1998.45 2371.51 2001.59 2369.77 2005.02 2368.9 2008.72 2368.9ZM1927.96 2368.9C1931.64 2368.9 1934.88 2369.84 1937.69 2371.73 1940.5 2373.62 1942.62 2376.29 1944.05 2379.74 1945.48 2383.18 1946.2 2386.96 1946.2 2391.06 1946.2 2395.47 1945.41 2399.43 1943.83 2402.96 1942.25 2406.48 1939.95 2409.19 1936.94 2411.06 1933.93 2412.94 1930.76 2413.88 1927.44 2413.88 1925 2413.88 1922.82 2413.37 1920.89 2412.34 1918.96 2411.31 1917.37 2410.02 1916.13 2408.45L1916.13 2429.4 1908.83 2429.4 1908.83 2369.87 1915.48 2369.87 1915.48 2375.46C1917.05 2373.27 1918.82 2371.63 1920.79 2370.54 1922.76 2369.44 1925.15 2368.9 1927.96 2368.9ZM1882.13 2368.9C1885.8 2368.9 1889.05 2369.84 1891.86 2371.73 1894.67 2373.62 1896.79 2376.29 1898.22 2379.74 1899.65 2383.18 1900.37 2386.96 1900.37 2391.06 1900.37 2395.47 1899.58 2399.43 1898 2402.96 1896.41 2406.48 1894.12 2409.19 1891.11 2411.06 1888.09 2412.94 1884.93 2413.88 1881.6 2413.88 1879.17 2413.88 1876.99 2413.37 1875.06 2412.34 1873.12 2411.31 1871.54 2410.02 1870.29 2408.45L1870.29 2429.4 1863 2429.4 1863 2369.87 1869.65 2369.87 1869.65 2375.46C1871.21 2373.27 1872.98 2371.63 1874.96 2370.54 1876.93 2369.44 1879.32 2368.9 1882.13 2368.9ZM2243.04 2360.51 2243.04 2381.74 2258.4 2381.74C2263.48 2381.74 2267.09 2380.8 2269.22 2378.91 2271.36 2377.01 2272.43 2374.35 2272.43 2370.92 2272.43 2368.44 2271.8 2366.31 2270.54 2364.54 2269.29 2362.77 2267.63 2361.6 2265.58 2361.03 2264.25 2360.68 2261.81 2360.51 2258.24 2360.51ZM1829.28 2359.74C1828.52 2363.55 1827.45 2367.33 1826.07 2371.08L1819.55 2388.51 1839.69 2388.51 1833.49 2372.06C1831.6 2367.06 1830.2 2362.95 1829.28 2359.74ZM2087.01 2354.83 2087.01 2369.87 2094.34 2369.87 2094.34 2375.54 2087.01 2375.54 2087.01 2400.71C2087.01 2402.79 2087.14 2404.13 2087.39 2404.72 2087.65 2405.32 2088.07 2405.79 2088.65 2406.14 2089.23 2406.49 2090.06 2406.67 2091.14 2406.67 2091.95 2406.67 2093.02 2406.57 2094.34 2406.38L2095.4 2412.83C2093.34 2413.26 2091.51 2413.48 2089.89 2413.48 2087.24 2413.48 2085.18 2413.06 2083.73 2412.22 2082.27 2411.38 2081.24 2410.28 2080.65 2408.92 2080.05 2407.55 2079.75 2404.68 2079.75 2400.3L2079.75 2375.54 2074.4 2375.54 2074.4 2369.87 2079.75 2369.87 2079.75 2359.21ZM2235.18 2353.5 2257.59 2353.5C2261.54 2353.5 2264.55 2353.68 2266.63 2354.06 2269.55 2354.55 2271.99 2355.47 2273.97 2356.84 2275.94 2358.2 2277.53 2360.11 2278.73 2362.57 2279.93 2365.03 2280.53 2367.73 2280.53 2370.68 2280.53 2375.73 2278.92 2380.01 2275.71 2383.51 2272.49 2387 2266.69 2388.75 2258.28 2388.75L2243.04 2388.75 2243.04 2412.91 2235.18 2412.91ZM2101.37 2353.5 2108.67 2353.5 2108.67 2361.88 2101.37 2361.88ZM1973.04 2353.5 1980.34 2353.5 1980.34 2361.88 1973.04 2361.88ZM1954.5 2353.5 1961.8 2353.5 1961.8 2412.91 1954.5 2412.91ZM1825.22 2353.5 1833.69 2353.5 1858.01 2412.91 1849.05 2412.91 1842.12 2394.91 1817.28 2394.91 1810.76 2412.91 1802.41 2412.91Z" stroke="#212121" stroke-width="3" stroke-linecap="butt" stroke-linejoin="round" stroke-miterlimit="10" stroke-opacity="1" fill="#212121" fill-rule="evenodd" fill-opacity="1"/><text fill="#000000" fill-opacity="0" font-family="Arial,Arial_MSFontService,sans-serif" font-size="75.9077" direction="ltr" writing-mode="lr-tb" x="1802.41" y="2419.91">Application Process</text><rect x="1418" y="1556" width="397" height="686" stroke="#5E2194" stroke-width="5.72917" stroke-linecap="round" stroke-linejoin="round" stroke-miterlimit="10" stroke-opacity="1" fill="#8231CA" fill-opacity="1"/><text fill="#FFFFFF" fill-opacity="1" font-family="Century Gothic,Century Gothic_MSFontService,sans-serif" font-style="normal" font-variant="normal" font-weight="400" font-stretch="normal" font-size="83" text-anchor="start" direction="ltr" writing-mode="lr-tb" unicode-bidi="normal" text-decoration="none" transform="matrix(1 0 0 1 1459.19 1881)">Business <tspan fill="#FFFFFF" fill-opacity="1" font-family="Century Gothic,Century Gothic_MSFontService,sans-serif" font-style="normal" font-variant="normal" font-weight="400" font-stretch="normal" font-size="83" text-anchor="start" direction="ltr" writing-mode="lr-tb" unicode-bidi="normal" text-decoration="none" x="48.6979" y="99">Logic</tspan></text><rect x="2011" y="1556" width="832" height="146" stroke="#5E2194" stroke-width="5.72917" stroke-linecap="round" stroke-linejoin="round" stroke-miterlimit="10" stroke-opacity="1" fill="#8231CA" fill-opacity="1"/><text fill="#FFFFFF" fill-opacity="1" font-family="Century Gothic,Century Gothic_MSFontService,sans-serif" font-style="normal" font-variant="normal" font-weight="400" font-stretch="normal" font-size="83" text-anchor="start" direction="ltr" writing-mode="lr-tb" unicode-bidi="normal" text-decoration="none" transform="matrix(1 0 0 1 2231.19 1660)">Feature A</text><rect x="2010" y="1837" width="833" height="146" stroke="#5E2194" stroke-width="5.72917" stroke-linecap="round" stroke-linejoin="round" stroke-miterlimit="10" stroke-opacity="1" fill="#8231CA" fill-opacity="1"/><text fill="#FFFFFF" fill-opacity="1" font-family="Century Gothic,Century Gothic_MSFontService,sans-serif" font-style="normal" font-variant="normal" font-weight="400" font-stretch="normal" font-size="83" text-anchor="start" direction="ltr" writing-mode="lr-tb" unicode-bidi="normal" text-decoration="none" transform="matrix(1 0 0 1 2237.76 1942)">Feature B</text><rect x="2010" y="2102" width="833" height="146" stroke="#5E2194" stroke-width="5.72917" stroke-linecap="round" stroke-linejoin="round" stroke-miterlimit="10" stroke-opacity="1" fill="#8231CA" fill-opacity="1"/><text fill="#FFFFFF" fill-opacity="1" font-family="Century Gothic,Century Gothic_MSFontService,sans-serif" font-style="normal" font-variant="normal" font-weight="400" font-stretch="normal" font-size="83" text-anchor="start" direction="ltr" writing-mode="lr-tb" unicode-bidi="normal" text-decoration="none" transform="matrix(1 0 0 1 2228.02 2207)">Feature C</text><path d="M22.9166-1.71871 195.2-1.71839C196.149-1.71839 196.919-0.948875 196.919 0.00036407 196.919 0.949604 196.149 1.71911 195.2 1.71911L22.9166 1.71879C21.9674 1.71879 21.1979 0.949279 21.1979 3.91914e-05 21.1979-0.9492 21.9674-1.71871 22.9166-1.71871ZM27.5 13.7501 0 0 27.5-13.7499Z" fill="#212121" fill-rule="nonzero" fill-opacity="1" transform="matrix(-1 0 0 1 2010.7 1629.5)"/><path d="M22.9166-1.71871 195.2-1.71839C196.149-1.71839 196.919-0.948875 196.919 0.00036407 196.919 0.949604 196.149 1.71911 195.2 1.71911L22.9166 1.71879C21.9674 1.71879 21.1979 0.949279 21.1979 3.91914e-05 21.1979-0.9492 21.9674-1.71871 22.9166-1.71871ZM27.5 13.7501 0 0 27.5-13.7499Z" fill="#212121" fill-rule="nonzero" fill-opacity="1" transform="matrix(-1 0 0 1 2010.7 1910.5)"/><path d="M22.9166-1.71871 195.2-1.71839C196.149-1.71839 196.919-0.948875 196.919 0.00036407 196.919 0.949604 196.149 1.71911 195.2 1.71911L22.9166 1.71879C21.9674 1.71879 21.1979 0.949279 21.1979 3.91914e-05 21.1979-0.9492 21.9674-1.71871 22.9166-1.71871ZM27.5 13.7501 0 0 27.5-13.7499Z" fill="#212121" fill-rule="nonzero" fill-opacity="1" transform="matrix(-1 0 0 1 2010.7 2185.5)"/><path d="M3545.3 1896.88 2864.33 1639.22C2863.44 1638.88 2862.99 1637.89 2863.33 1637 2863.66 1636.11 2864.65 1635.67 2865.54 1636L3546.52 1893.67C3547.41 1894 3547.86 1894.99 3547.52 1895.88 3547.18 1896.77 3546.19 1897.22 3545.3 1896.88ZM3546.49 1880.79 3567.34 1903.38 3536.76 1906.51ZM2864.35 1652.09 2843.5 1629.5 2874.09 1626.37Z" fill="#212121" fill-rule="nonzero" fill-opacity="1"/><path d="M22.0553 6.45719 703.303 262.626C704.192 262.96 704.641 263.951 704.307 264.84 703.973 265.728 702.982 266.178 702.094 265.844L20.8454 9.67474C19.9569 9.34063 19.5075 8.34952 19.8416 7.46102 20.1757 6.57252 21.1668 6.12309 22.0553 6.45719ZM20.9008 22.5493 0 0 30.5799-3.19104ZM703.247 249.751 724.148 272.301 693.568 275.492Z" fill="#212121" fill-rule="nonzero" fill-opacity="1" transform="matrix(-1 0 0 1 3567.65 1903.5)"/><path d="M22.9337-1.48343 701.25 5.47942C702.2 5.48916 702.961 6.26653 702.952 7.21572 702.942 8.16491 702.164 8.92648 701.215 8.91674L22.8984 1.95389C21.9492 1.94415 21.1876 1.16678 21.1974 0.217589 21.2071-0.7316 21.9845-1.49317 22.9337-1.48343ZM27.3574 14.0315 0 0 27.6397-13.467ZM696.79-6.59824 724.148 7.4333 696.508 20.9003Z" fill="#212121" fill-rule="nonzero" fill-opacity="1" transform="matrix(-1 0 0 1 3567.65 1903.5)"/><text fill="#212121" fill-opacity="1" font-family="Arial,Arial_MSFontService,sans-serif" font-style="normal" font-variant="normal" font-weight="400" font-stretch="normal" font-size="55" text-anchor="start" direction="ltr" writing-mode="lr-tb" unicode-bidi="normal" text-decoration="none" transform="matrix(1 0 0 1 2970.02 1880)">Data Interface</text><path d="M22.9337-1.48343 701.25 5.47942C702.2 5.48916 702.961 6.26653 702.952 7.21572 702.942 8.16491 702.164 8.92648 701.215 8.91674L22.8984 1.95389C21.9492 1.94415 21.1876 1.16678 21.1974 0.217589 21.2071-0.7316 21.9845-1.49317 22.9337-1.48343ZM27.3574 14.0315 0 0 27.6397-13.467ZM696.79-6.59824 724.148 7.4333 696.508 20.9003Z" fill="#212121" fill-rule="nonzero" fill-opacity="1" transform="matrix(-1 0 0 1 1371.65 1899.5)"/><path d="M927.469 1839.68C925.249 1839.68 923.383 1840.42 921.87 1841.91 920.357 1843.4 919.52 1845.38 919.359 1847.87L935.284 1847.87C935.07 1845.47 934.461 1843.67 933.458 1842.47 931.919 1840.61 929.922 1839.68 927.469 1839.68ZM956.545 1835.71C958.174 1835.71 959.83 1836.23 961.513 1837.26L959.848 1841.75C958.667 1841.05 957.485 1840.7 956.303 1840.7 955.247 1840.7 954.298 1841.02 953.457 1841.65 952.615 1842.29 952.015 1843.17 951.657 1844.3 951.12 1846.02 950.852 1847.9 950.852 1849.94L950.852 1864.87 946.018 1864.87 946.018 1836.35 950.368 1836.35 950.368 1840.67C951.478 1838.65 952.503 1837.32 953.443 1836.67 954.383 1836.03 955.417 1835.71 956.545 1835.71ZM927.416 1835.71C931.229 1835.71 934.344 1837 936.761 1839.6 939.178 1842.2 940.387 1845.85 940.387 1850.56 940.387 1850.84 940.378 1851.27 940.36 1851.85L919.091 1851.85C919.27 1854.98 920.156 1857.38 921.749 1859.04 923.343 1860.71 925.33 1861.54 927.711 1861.54 929.484 1861.54 930.996 1861.08 932.25 1860.14 933.503 1859.21 934.497 1857.73 935.231 1855.69L940.226 1856.3C939.438 1859.22 937.979 1861.49 935.848 1863.1 933.718 1864.71 930.997 1865.52 927.684 1865.52 923.513 1865.52 920.205 1864.23 917.761 1861.66 915.317 1859.09 914.095 1855.49 914.095 1850.85 914.095 1846.05 915.331 1842.33 917.802 1839.68 920.272 1837.03 923.477 1835.71 927.416 1835.71ZM897.579 1835.71C899.817 1835.71 901.782 1836.03 903.474 1836.67 905.166 1837.32 906.415 1838.19 907.22 1839.29 908.026 1840.39 908.581 1841.86 908.885 1843.71L904.159 1844.35C903.944 1842.89 903.322 1841.74 902.292 1840.92 901.263 1840.09 899.808 1839.68 897.928 1839.68 895.708 1839.68 894.124 1840.05 893.175 1840.78 892.226 1841.52 891.752 1842.38 891.752 1843.36 891.752 1843.99 891.949 1844.55 892.343 1845.05 892.736 1845.57 893.354 1846 894.196 1846.34 894.679 1846.52 896.102 1846.93 898.466 1847.58 901.885 1848.49 904.271 1849.24 905.623 1849.82 906.974 1850.4 908.035 1851.25 908.805 1852.36 909.575 1853.47 909.96 1854.85 909.96 1856.49 909.96 1858.1 909.49 1859.62 908.55 1861.04 907.61 1862.47 906.254 1863.57 904.481 1864.35 902.709 1865.13 900.704 1865.52 898.466 1865.52 894.76 1865.52 891.935 1864.75 889.993 1863.21 888.05 1861.67 886.81 1859.38 886.273 1856.36L891.053 1855.61C891.322 1857.52 892.07 1858.99 893.296 1860.01 894.522 1861.03 896.237 1861.54 898.439 1861.54 900.659 1861.54 902.306 1861.09 903.38 1860.18 904.454 1859.28 904.991 1858.22 904.991 1857 904.991 1855.91 904.517 1855.05 903.568 1854.42 902.906 1853.99 901.259 1853.45 898.627 1852.79 895.082 1851.89 892.625 1851.12 891.255 1850.46 889.885 1849.81 888.847 1848.91 888.14 1847.75 887.432 1846.6 887.079 1845.32 887.079 1843.92 887.079 1842.65 887.37 1841.48 887.952 1840.39 888.534 1839.31 889.326 1838.41 890.328 1837.69 891.08 1837.14 892.105 1836.67 893.403 1836.28 894.701 1835.9 896.093 1835.71 897.579 1835.71ZM849.374 1825.5 854.584 1825.5 854.584 1848.22C854.584 1851.64 854.902 1854.16 855.537 1855.78 856.173 1857.4 857.265 1858.65 858.813 1859.53 860.362 1860.4 862.255 1860.84 864.493 1860.84 868.325 1860.84 871.055 1859.97 872.684 1858.24 874.314 1856.5 875.128 1853.16 875.128 1848.22L875.128 1825.5 880.338 1825.5 880.338 1848.25C880.338 1852.2 879.891 1855.35 878.995 1857.67 878.1 1860 876.484 1861.89 874.148 1863.35 871.812 1864.81 868.746 1865.54 864.95 1865.54 861.262 1865.54 858.245 1864.91 855.9 1863.64 853.554 1862.36 851.88 1860.53 850.878 1858.12 849.875 1855.71 849.374 1852.42 849.374 1848.25Z" stroke="#212121" stroke-width="3" stroke-linecap="butt" stroke-linejoin="round" stroke-miterlimit="10" stroke-opacity="1" fill="#000000" fill-rule="evenodd" fill-opacity="1"/><text fill="#000000" fill-opacity="0" font-family="Arial,Arial_MSFontService,sans-serif" font-size="40.0415" direction="ltr" writing-mode="lr-tb" x="849.374" y="1860.54">User </text><path d="M1123.55 1850.56C1121.8 1851.27 1119.16 1851.88 1115.65 1852.38 1113.67 1852.67 1112.26 1852.99 1111.44 1853.35 1110.61 1853.71 1109.98 1854.23 1109.53 1854.92 1109.08 1855.61 1108.86 1856.38 1108.86 1857.22 1108.86 1858.51 1109.35 1859.58 1110.32 1860.44 1111.3 1861.3 1112.73 1861.73 1114.61 1861.73 1116.47 1861.73 1118.13 1861.32 1119.58 1860.51 1121.03 1859.69 1122.09 1858.58 1122.77 1857.16 1123.29 1856.07 1123.55 1854.46 1123.55 1852.33ZM1052.94 1839.68C1050.72 1839.68 1048.85 1840.42 1047.34 1841.91 1045.83 1843.4 1044.99 1845.38 1044.83 1847.87L1060.75 1847.87C1060.54 1845.47 1059.93 1843.67 1058.93 1842.47 1057.39 1840.61 1055.39 1839.68 1052.94 1839.68ZM1147.23 1835.71C1150.33 1835.71 1152.86 1836.49 1154.83 1838.06 1156.8 1839.62 1158.06 1841.85 1158.61 1844.73L1153.91 1845.45C1153.47 1843.54 1152.67 1842.1 1151.54 1841.13 1150.4 1840.16 1149.03 1839.68 1147.42 1839.68 1144.98 1839.68 1143 1840.55 1141.48 1842.3 1139.96 1844.04 1139.2 1846.81 1139.2 1850.58 1139.2 1854.42 1139.93 1857.2 1141.4 1858.94 1142.87 1860.67 1144.78 1861.54 1147.15 1861.54 1149.05 1861.54 1150.63 1860.96 1151.9 1859.8 1153.17 1858.63 1153.98 1856.84 1154.32 1854.42L1159.07 1855.04C1158.55 1858.32 1157.22 1860.88 1155.08 1862.74 1152.94 1864.59 1150.32 1865.52 1147.2 1865.52 1143.3 1865.52 1140.16 1864.24 1137.79 1861.69 1135.42 1859.14 1134.23 1855.48 1134.23 1850.72 1134.23 1847.64 1134.74 1844.94 1135.76 1842.63 1136.78 1840.33 1138.33 1838.59 1140.42 1837.44 1142.51 1836.28 1144.78 1835.71 1147.23 1835.71ZM1117.4 1835.71C1119.84 1835.71 1121.81 1835.99 1123.34 1836.57 1124.86 1837.14 1125.98 1837.86 1126.69 1838.73 1127.41 1839.6 1127.91 1840.69 1128.2 1842.02 1128.36 1842.84 1128.44 1844.33 1128.44 1846.48L1128.44 1852.92C1128.44 1857.41 1128.54 1860.26 1128.75 1861.45 1128.95 1862.64 1129.36 1863.78 1129.97 1864.87L1124.92 1864.87C1124.42 1863.87 1124.1 1862.7 1123.95 1861.35 1122.16 1862.87 1120.44 1863.95 1118.78 1864.58 1117.13 1865.2 1115.35 1865.52 1113.45 1865.52 1110.32 1865.52 1107.91 1864.75 1106.23 1863.22 1104.55 1861.69 1103.7 1859.73 1103.7 1857.35 1103.7 1855.96 1104.02 1854.68 1104.66 1853.52 1105.29 1852.37 1106.13 1851.44 1107.15 1850.75 1108.18 1850.05 1109.34 1849.52 1110.63 1849.16 1111.58 1848.91 1113.01 1848.67 1114.93 1848.44 1118.83 1847.97 1121.71 1847.42 1123.55 1846.77 1123.57 1846.11 1123.58 1845.69 1123.58 1845.51 1123.58 1843.54 1123.12 1842.15 1122.21 1841.35 1120.97 1840.25 1119.14 1839.71 1116.7 1839.71 1114.43 1839.71 1112.75 1840.11 1111.67 1840.9 1110.58 1841.7 1109.78 1843.11 1109.26 1845.13L1104.54 1844.49C1104.97 1842.46 1105.67 1840.83 1106.66 1839.59 1107.64 1838.34 1109.07 1837.38 1110.93 1836.71 1112.79 1836.04 1114.95 1835.71 1117.4 1835.71ZM1052.88 1835.71C1056.7 1835.71 1059.81 1837 1062.23 1839.6 1064.65 1842.2 1065.86 1845.85 1065.86 1850.56 1065.86 1850.84 1065.85 1851.27 1065.83 1851.85L1044.56 1851.85C1044.74 1854.98 1045.62 1857.38 1047.22 1859.04 1048.81 1860.71 1050.8 1861.54 1053.18 1861.54 1054.95 1861.54 1056.47 1861.08 1057.72 1860.14 1058.97 1859.21 1059.97 1857.73 1060.7 1855.69L1065.69 1856.3C1064.91 1859.22 1063.45 1861.49 1061.32 1863.1 1059.19 1864.71 1056.47 1865.52 1053.15 1865.52 1048.98 1865.52 1045.67 1864.23 1043.23 1861.66 1040.79 1859.09 1039.56 1855.49 1039.56 1850.85 1039.56 1846.05 1040.8 1842.33 1043.27 1839.68 1045.74 1837.03 1048.95 1835.71 1052.88 1835.71ZM1008.77 1835.71C1010.49 1835.71 1012.07 1836.01 1013.51 1836.63 1014.95 1837.25 1016.03 1838.06 1016.75 1839.06 1017.46 1840.07 1017.96 1841.26 1018.25 1842.63 1018.43 1843.53 1018.52 1845.1 1018.52 1847.33L1018.52 1864.87 1013.68 1864.87 1013.68 1847.52C1013.68 1845.55 1013.5 1844.08 1013.12 1843.1 1012.74 1842.13 1012.08 1841.35 1011.12 1840.77 1010.16 1840.19 1009.04 1839.9 1007.75 1839.9 1005.69 1839.9 1003.91 1840.55 1002.42 1841.86 1000.92 1843.16 1000.18 1845.64 1000.18 1849.29L1000.18 1864.87 995.342 1864.87 995.342 1836.35 999.693 1836.35 999.693 1840.41C1001.79 1837.27 1004.81 1835.71 1008.77 1835.71ZM1031.4 1826.39 1031.4 1836.35 1036.26 1836.35 1036.26 1840.11 1031.4 1840.11 1031.4 1856.79C1031.4 1858.17 1031.49 1859.05 1031.66 1859.45 1031.83 1859.84 1032.1 1860.15 1032.49 1860.39 1032.87 1860.62 1033.42 1860.74 1034.14 1860.74 1034.68 1860.74 1035.38 1860.67 1036.26 1860.55L1036.96 1864.82C1035.6 1865.1 1034.38 1865.25 1033.31 1865.25 1031.55 1865.25 1030.19 1864.97 1029.22 1864.41 1028.26 1863.86 1027.58 1863.13 1027.18 1862.23 1026.79 1861.32 1026.59 1859.42 1026.59 1856.52L1026.59 1840.11 1023.05 1840.11 1023.05 1836.35 1026.59 1836.35 1026.59 1829.29ZM981.377 1825.5 986.587 1825.5 986.587 1864.87 981.377 1864.87ZM1098.92 1824.83C1100.28 1824.83 1101.79 1824.99 1103.44 1825.31L1102.71 1829.53C1101.71 1829.35 1100.76 1829.26 1099.86 1829.26 1098.4 1829.26 1097.36 1829.57 1096.75 1830.2 1096.14 1830.83 1095.84 1832 1095.84 1833.72L1095.84 1836.35 1101.39 1836.35 1101.39 1840.11 1095.84 1840.11 1095.84 1864.87 1091.03 1864.87 1091.03 1840.11 1086.76 1840.11 1086.76 1837.87 1085.32 1841.75C1084.14 1841.05 1082.95 1840.7 1081.77 1840.7 1080.72 1840.7 1079.77 1841.02 1078.93 1841.65 1078.08 1842.29 1077.48 1843.17 1077.13 1844.3 1076.59 1846.02 1076.32 1847.9 1076.32 1849.94L1076.32 1864.87 1071.49 1864.87 1071.49 1836.35 1075.84 1836.35 1075.84 1840.67C1076.95 1838.65 1077.97 1837.32 1078.91 1836.67 1079.85 1836.03 1080.89 1835.71 1082.01 1835.71 1083.24 1835.71 1084.47 1836 1085.72 1836.58L1086.76 1837.14 1086.76 1836.35 1091.03 1836.35 1091.03 1833.32C1091.03 1831.4 1091.2 1829.98 1091.54 1829.05 1092 1827.79 1092.82 1826.78 1094 1826 1095.17 1825.22 1096.81 1824.83 1098.92 1824.83Z" stroke="#212121" stroke-width="3" stroke-linecap="butt" stroke-linejoin="round" stroke-miterlimit="10" stroke-opacity="1" fill="#212121" fill-rule="evenodd" fill-opacity="1"/><text fill="#000000" fill-opacity="0" font-family="Arial,Arial_MSFontService,sans-serif" font-size="40.686" direction="ltr" writing-mode="lr-tb" x="981.377" y="1860.43">Interfac</text><path d="M1174.97 1839.68C1172.75 1839.68 1170.88 1840.42 1169.37 1841.91 1167.86 1843.4 1167.02 1845.38 1166.86 1847.87L1182.78 1847.87C1182.57 1845.47 1181.96 1843.67 1180.96 1842.47 1179.42 1840.61 1177.42 1839.68 1174.97 1839.68ZM1174.92 1835.71C1178.73 1835.71 1181.84 1837 1184.26 1839.6 1186.68 1842.2 1187.89 1845.85 1187.89 1850.56 1187.89 1850.84 1187.88 1851.27 1187.86 1851.85L1166.59 1851.85C1166.77 1854.98 1167.66 1857.38 1169.25 1859.04 1170.84 1860.71 1172.83 1861.54 1175.21 1861.54 1176.98 1861.54 1178.5 1861.08 1179.75 1860.14 1181 1859.21 1182 1857.73 1182.73 1855.69L1187.73 1856.3C1186.94 1859.22 1185.48 1861.49 1183.35 1863.1 1181.22 1864.71 1178.5 1865.52 1175.18 1865.52 1171.01 1865.52 1167.71 1864.23 1165.26 1861.66 1162.82 1859.09 1161.6 1855.49 1161.6 1850.85 1161.6 1846.05 1162.83 1842.33 1165.3 1839.68 1167.77 1837.03 1170.98 1835.71 1174.92 1835.71Z" stroke="#212121" stroke-width="3" stroke-linecap="butt" stroke-linejoin="round" stroke-miterlimit="10" stroke-opacity="1" fill="#212121" fill-rule="evenodd" fill-opacity="1"/><text fill="#000000" fill-opacity="0" font-family="Arial,Arial_MSFontService,sans-serif" font-size="29.8096" direction="ltr" writing-mode="lr-tb" x="1161.6" y="1861.79">e</text><text fill="#212121" fill-opacity="1" font-family="Arial,Arial_MSFontService,sans-serif" font-style="normal" font-variant="normal" font-weight="400" font-stretch="normal" font-size="83" text-anchor="start" direction="ltr" writing-mode="lr-tb" unicode-bidi="normal" text-decoration="none" transform="matrix(1 0 0 1 3581.76 2269)">Database</text><g clip-path="url(#clip1)"><g clip-path="url(#clip2)"><g clip-path="url(#clip3)"><path d="M583.458 138.188C583.458 172.107 487.218 199.604 368.5 199.604 249.782 199.604 153.542 172.107 153.542 138.188 153.542 104.268 249.782 76.7708 368.5 76.7708 487.218 76.7708 583.458 104.268 583.458 138.188Z" stroke="#212121" stroke-width="7.67715" stroke-linecap="butt" stroke-linejoin="miter" stroke-miterlimit="4" stroke-opacity="1" fill="#FFFFFF" fill-rule="nonzero" fill-opacity="1" transform="matrix(1.00136 0 0 1 3415 1486)"/><path d="M522.042 291.729C512.829 291.729 506.688 285.588 506.688 276.375 506.688 267.163 512.829 261.021 522.042 261.021 531.254 261.021 537.396 267.163 537.396 276.375 537.396 285.588 531.254 291.729 522.042 291.729ZM368.5 230.312C250.273 230.312 153.542 202.675 153.542 168.896L153.542 291.729C153.542 325.508 250.273 353.146 368.5 353.146 486.727 353.146 583.458 325.508 583.458 291.729L583.458 168.896C583.458 202.675 486.727 230.312 368.5 230.312Z" stroke="#212121" stroke-width="7.67715" stroke-linecap="butt" stroke-linejoin="miter" stroke-miterlimit="4" stroke-opacity="1" fill="#FFFFFF" fill-rule="nonzero" fill-opacity="1" transform="matrix(1.00136 0 0 1 3415 1486)"/><path d="M522.042 445.271C512.829 445.271 506.688 439.129 506.688 429.917 506.688 420.704 512.829 414.562 522.042 414.562 531.254 414.562 537.396 420.704 537.396 429.917 537.396 439.129 531.254 445.271 522.042 445.271ZM368.5 383.854C250.273 383.854 153.542 356.217 153.542 322.438L153.542 445.271C153.542 479.05 250.273 506.688 368.5 506.688 486.727 506.688 583.458 479.05 583.458 445.271L583.458 322.438C583.458 356.217 486.727 383.854 368.5 383.854Z" stroke="#212121" stroke-width="7.67715" stroke-linecap="butt" stroke-linejoin="miter" stroke-miterlimit="4" stroke-opacity="1" fill="#FFFFFF" fill-rule="nonzero" fill-opacity="1" transform="matrix(1.00136 0 0 1 3415 1486)"/><path d="M522.042 598.812C512.829 598.812 506.688 592.671 506.688 583.458 506.688 574.246 512.829 568.104 522.042 568.104 531.254 568.104 537.396 574.246 537.396 583.458 537.396 592.671 531.254 598.812 522.042 598.812ZM368.5 537.396C250.273 537.396 153.542 509.758 153.542 475.979L153.542 598.812C153.542 632.592 250.273 660.229 368.5 660.229 486.727 660.229 583.458 632.592 583.458 598.812L583.458 475.979C583.458 509.758 486.727 537.396 368.5 537.396Z" stroke="#212121" stroke-width="7.67715" stroke-linecap="butt" stroke-linejoin="miter" stroke-miterlimit="4" stroke-opacity="1" fill="#FFFFFF" fill-rule="nonzero" fill-opacity="1" transform="matrix(1.00136 0 0 1 3415 1486)"/></g></g></g></g></svg>