<svg width="1274" height="1078" xmlns="http://www.w3.org/2000/svg" xmlns:xlink="http://www.w3.org/1999/xlink" xml:space="preserve" overflow="hidden"><defs><clipPath id="clip0"><rect x="600" y="1122" width="1274" height="1078"/></clipPath></defs><g clip-path="url(#clip0)" transform="translate(-600 -1122)"><path d="M611 2020.67C611 2001.52 626.521 1986 645.668 1986L1834.33 1986C1853.48 1986 1869 2001.52 1869 2020.67L1869 2159.33C1869 2178.48 1853.48 2194 1834.33 2194L645.668 2194C626.521 2194 611 2178.48 611 2159.33Z" stroke="#5E2194" stroke-width="5.72917" stroke-linecap="round" stroke-linejoin="round" stroke-miterlimit="10" stroke-opacity="1" fill="#8231CA" fill-rule="evenodd" fill-opacity="1"/><text fill="#FFFFFF" fill-opacity="1" font-family="Century Gothic,Century Gothic_MSFontService,sans-serif" font-style="normal" font-variant="normal" font-weight="400" font-stretch="normal" font-size="83" text-anchor="start" direction="ltr" writing-mode="lr-tb" unicode-bidi="normal" text-decoration="none" transform="matrix(1 0 0 1 1041.01 2122)">Hardware</text><path d="M606 1778.67C606 1759.52 621.521 1744 640.668 1744L1829.33 1744C1848.48 1744 1864 1759.52 1864 1778.67L1864 1917.33C1864 1936.48 1848.48 1952 1829.33 1952L640.668 1952C621.521 1952 606 1936.48 606 1917.33Z" stroke="#5E2194" stroke-width="5.72917" stroke-linecap="round" stroke-linejoin="round" stroke-miterlimit="10" stroke-opacity="1" fill="#8231CA" fill-rule="evenodd" fill-opacity="1"/><text fill="#FFFFFF" fill-opacity="1" font-family="Century Gothic,Century Gothic_MSFontService,sans-serif" font-style="normal" font-variant="normal" font-weight="400" font-stretch="normal" font-size="83" text-anchor="start" direction="ltr" writing-mode="lr-tb" unicode-bidi="normal" text-decoration="none" transform="matrix(1 0 0 1 661.779 1879)">Operating System (Optional)</text><path d="M606 1535.67C606 1516.52 621.521 1501 640.668 1501L1829.33 1501C1848.48 1501 1864 1516.52 1864 1535.67L1864 1674.33C1864 1693.48 1848.48 1709 1829.33 1709L640.668 1709C621.521 1709 606 1693.48 606 1674.33Z" stroke="#5E2194" stroke-width="5.72917" stroke-linecap="round" stroke-linejoin="round" stroke-miterlimit="10" stroke-opacity="1" fill="#8231CA" fill-rule="evenodd" fill-opacity="1"/><text fill="#FFFFFF" fill-opacity="1" font-family="Century Gothic,Century Gothic_MSFontService,sans-serif" font-style="normal" font-variant="normal" font-weight="400" font-stretch="normal" font-size="83" text-anchor="start" direction="ltr" writing-mode="lr-tb" unicode-bidi="normal" text-decoration="none" transform="matrix(1 0 0 1 1030.74 1637)">Hypervisor</text><path d="M606 1184.83C606 1152.89 631.893 1127 663.835 1127L940.165 1127C972.107 1127 998 1152.89 998 1184.83L998 1416.17C998 1448.11 972.107 1474 940.165 1474L663.835 1474C631.893 1474 606 1448.11 606 1416.17Z" stroke="#5E2194" stroke-width="5.72917" stroke-linecap="round" stroke-linejoin="round" stroke-miterlimit="10" stroke-opacity="1" fill="#8231CA" fill-rule="evenodd" fill-opacity="1"/><text fill="#FFFFFF" fill-opacity="1" font-family="Century Gothic,Century Gothic_MSFontService,sans-serif" font-style="normal" font-variant="normal" font-weight="400" font-stretch="normal" font-size="83" text-anchor="start" direction="ltr" writing-mode="lr-tb" unicode-bidi="normal" text-decoration="none" transform="matrix(1 0 0 1 712.363 1332)">VM1</text><path d="M1043 1184.83C1043 1152.89 1068.89 1127 1100.83 1127L1378.17 1127C1410.11 1127 1436 1152.89 1436 1184.83L1436 1416.17C1436 1448.11 1410.11 1474 1378.17 1474L1100.83 1474C1068.89 1474 1043 1448.11 1043 1416.17Z" stroke="#5E2194" stroke-width="5.72917" stroke-linecap="round" stroke-linejoin="round" stroke-miterlimit="10" stroke-opacity="1" fill="#8231CA" fill-rule="evenodd" fill-opacity="1"/><text fill="#FFFFFF" fill-opacity="1" font-family="Century Gothic,Century Gothic_MSFontService,sans-serif" font-style="normal" font-variant="normal" font-weight="400" font-stretch="normal" font-size="83" text-anchor="start" direction="ltr" writing-mode="lr-tb" unicode-bidi="normal" text-decoration="none" transform="matrix(1 0 0 1 1149.87 1332)">VM2</text><path d="M1471 1184.83C1471 1152.89 1496.89 1127 1528.83 1127L1806.17 1127C1838.11 1127 1864 1152.89 1864 1184.83L1864 1416.17C1864 1448.11 1838.11 1474 1806.17 1474L1528.83 1474C1496.89 1474 1471 1448.11 1471 1416.17Z" stroke="#5E2194" stroke-width="5.72917" stroke-linecap="round" stroke-linejoin="round" stroke-miterlimit="10" stroke-opacity="1" fill="#8231CA" fill-rule="evenodd" fill-opacity="1"/><text fill="#FFFFFF" fill-opacity="1" font-family="Century Gothic,Century Gothic_MSFontService,sans-serif" font-style="normal" font-variant="normal" font-weight="400" font-stretch="normal" font-size="83" text-anchor="start" direction="ltr" writing-mode="lr-tb" unicode-bidi="normal" text-decoration="none" transform="matrix(1 0 0 1 1577.7 1332)">VM3</text></g></svg>